<svg width="928" height="410" viewBox="0 0 928 410" fill="none" xmlns="http://www.w3.org/2000/svg">
<rect x="34" y="102" width="288" height="288" rx="20" fill="#FF8BB5"/>
<rect x="58" y="128" width="36" height="225" fill="#FFE602"/>
<rect x="72" y="353" width="36" height="224" transform="rotate(-90 72 353)" fill="#FFE602"/>
<path d="M291.298 124.66L223.484 343.358L62.3546 128.146L291.298 124.66Z" fill="#F3387B"/>
<path d="M292.851 124.102L296.344 342.545L141.597 281.746L292.851 124.102Z" fill="#F3387B"/>
<rect x="117.689" y="255.316" width="31.4621" height="70.5446" transform="rotate(-37.8762 117.689 255.316)" fill="#FF8BB5"/>
<rect x="195.53" y="322.744" width="32.027" height="10.1293" transform="rotate(-125.581 195.53 322.744)" fill="#FF8BB5"/>
<rect x="192.035" y="348.081" width="30.9949" height="104.04" transform="rotate(-90.0639 192.035 348.081)" fill="#FFE602"/>
<path d="M213.213 310.536L295.646 267.688L296.006 352.684L213.213 310.536Z" fill="#F3387B"/>
<rect x="261.232" y="258" width="59" height="80.4295" transform="rotate(54.1986 261.232 258)" fill="#F3387B"/>
<path d="M263 323L295.909 353H230.091L263 323Z" fill="#F3387B"/>
<path d="M407.625 213.938H382.969L378.281 228H363.328L388.734 159.75H401.766L427.312 228H412.359L407.625 213.938ZM386.766 202.547H403.828L395.25 177L386.766 202.547ZM448.641 228H434.578V159.75H448.641V228ZM497.109 210.094C497.109 207.438 496.172 205.406 494.297 204C492.422 202.562 489.047 201.062 484.172 199.5C479.297 197.906 475.438 196.344 472.594 194.812C464.844 190.625 460.969 184.984 460.969 177.891C460.969 174.203 462 170.922 464.062 168.047C466.156 165.141 469.141 162.875 473.016 161.25C476.922 159.625 481.297 158.812 486.141 158.812C491.016 158.812 495.359 159.703 499.172 161.484C502.984 163.234 505.938 165.719 508.031 168.938C510.156 172.156 511.219 175.812 511.219 179.906H497.156C497.156 176.781 496.172 174.359 494.203 172.641C492.234 170.891 489.469 170.016 485.906 170.016C482.469 170.016 479.797 170.75 477.891 172.219C475.984 173.656 475.031 175.562 475.031 177.938C475.031 180.156 476.141 182.016 478.359 183.516C480.609 185.016 483.906 186.422 488.25 187.734C496.25 190.141 502.078 193.125 505.734 196.688C509.391 200.25 511.219 204.688 511.219 210C511.219 215.906 508.984 220.547 504.516 223.922C500.047 227.266 494.031 228.938 486.469 228.938C481.219 228.938 476.438 227.984 472.125 226.078C467.812 224.141 464.516 221.5 462.234 218.156C459.984 214.812 458.859 210.938 458.859 206.531H472.969C472.969 214.062 477.469 217.828 486.469 217.828C489.812 217.828 492.422 217.156 494.297 215.812C496.172 214.438 497.109 212.531 497.109 210.094ZM576.328 228H562.266V198.75H534.844V228H520.781V159.75H534.844V187.406H562.266V159.75H576.328V228ZM638.625 171.141H617.719V228H603.656V171.141H583.031V159.75H638.625V171.141ZM687.75 198.422H660.75V216.703H692.438V228H646.688V159.75H692.344V171.141H660.75V187.406H687.75V198.422ZM754.266 205.266C753.734 212.609 751.016 218.391 746.109 222.609C741.234 226.828 734.797 228.938 726.797 228.938C718.047 228.938 711.156 226 706.125 220.125C701.125 214.219 698.625 206.125 698.625 195.844V191.672C698.625 185.109 699.781 179.328 702.094 174.328C704.406 169.328 707.703 165.5 711.984 162.844C716.297 160.156 721.297 158.812 726.984 158.812C734.859 158.812 741.203 160.922 746.016 165.141C750.828 169.359 753.609 175.281 754.359 182.906H740.297C739.953 178.5 738.719 175.312 736.594 173.344C734.5 171.344 731.297 170.344 726.984 170.344C722.297 170.344 718.781 172.031 716.438 175.406C714.125 178.75 712.938 183.953 712.875 191.016V196.172C712.875 203.547 713.984 208.938 716.203 212.344C718.453 215.75 721.984 217.453 726.797 217.453C731.141 217.453 734.375 216.469 736.5 214.5C738.656 212.5 739.891 209.422 740.203 205.266H754.266ZM819.047 228H804.984V198.75H777.562V228H763.5V159.75H777.562V187.406H804.984V159.75H819.047V228ZM404.484 323.094C404.484 320.438 403.547 318.406 401.672 317C399.797 315.562 396.422 314.062 391.547 312.5C386.672 310.906 382.812 309.344 379.969 307.812C372.219 303.625 368.344 297.984 368.344 290.891C368.344 287.203 369.375 283.922 371.438 281.047C373.531 278.141 376.516 275.875 380.391 274.25C384.297 272.625 388.672 271.812 393.516 271.812C398.391 271.812 402.734 272.703 406.547 274.484C410.359 276.234 413.312 278.719 415.406 281.938C417.531 285.156 418.594 288.812 418.594 292.906H404.531C404.531 289.781 403.547 287.359 401.578 285.641C399.609 283.891 396.844 283.016 393.281 283.016C389.844 283.016 387.172 283.75 385.266 285.219C383.359 286.656 382.406 288.562 382.406 290.938C382.406 293.156 383.516 295.016 385.734 296.516C387.984 298.016 391.281 299.422 395.625 300.734C403.625 303.141 409.453 306.125 413.109 309.688C416.766 313.25 418.594 317.688 418.594 323C418.594 328.906 416.359 333.547 411.891 336.922C407.422 340.266 401.406 341.938 393.844 341.938C388.594 341.938 383.812 340.984 379.5 339.078C375.188 337.141 371.891 334.5 369.609 331.156C367.359 327.812 366.234 323.938 366.234 319.531H380.344C380.344 327.062 384.844 330.828 393.844 330.828C397.188 330.828 399.797 330.156 401.672 328.812C403.547 327.438 404.484 325.531 404.484 323.094ZM484.219 308.422C484.219 315.141 483.031 321.031 480.656 326.094C478.281 331.156 474.875 335.062 470.438 337.812C466.031 340.562 460.969 341.938 455.25 341.938C449.594 341.938 444.547 340.578 440.109 337.859C435.672 335.141 432.234 331.266 429.797 326.234C427.359 321.172 426.125 315.359 426.094 308.797V305.422C426.094 298.703 427.297 292.797 429.703 287.703C432.141 282.578 435.562 278.656 439.969 275.938C444.406 273.188 449.469 271.812 455.156 271.812C460.844 271.812 465.891 273.188 470.297 275.938C474.734 278.656 478.156 282.578 480.562 287.703C483 292.797 484.219 298.688 484.219 305.375V308.422ZM469.969 305.328C469.969 298.172 468.688 292.734 466.125 289.016C463.562 285.297 459.906 283.438 455.156 283.438C450.438 283.438 446.797 285.281 444.234 288.969C441.672 292.625 440.375 298 440.344 305.094V308.422C440.344 315.391 441.625 320.797 444.188 324.641C446.75 328.484 450.438 330.406 455.25 330.406C459.969 330.406 463.594 328.562 466.125 324.875C468.656 321.156 469.938 315.75 469.969 308.656V305.328ZM508.5 329.703H538.359V341H494.438V272.75H508.5V329.703ZM597 272.75V317.703C597 325.172 594.656 331.078 589.969 335.422C585.312 339.766 578.938 341.938 570.844 341.938C562.875 341.938 556.547 339.828 551.859 335.609C547.172 331.391 544.781 325.594 544.688 318.219V272.75H558.75V317.797C558.75 322.266 559.812 325.531 561.938 327.594C564.094 329.625 567.062 330.641 570.844 330.641C578.75 330.641 582.766 326.484 582.891 318.172V272.75H597ZM659.906 284.141H639V341H624.938V284.141H604.312V272.75H659.906V284.141ZM682.922 341H668.859V272.75H682.922V341ZM752.062 308.422C752.062 315.141 750.875 321.031 748.5 326.094C746.125 331.156 742.719 335.062 738.281 337.812C733.875 340.562 728.812 341.938 723.094 341.938C717.438 341.938 712.391 340.578 707.953 337.859C703.516 335.141 700.078 331.266 697.641 326.234C695.203 321.172 693.969 315.359 693.938 308.797V305.422C693.938 298.703 695.141 292.797 697.547 287.703C699.984 282.578 703.406 278.656 707.812 275.938C712.25 273.188 717.312 271.812 723 271.812C728.688 271.812 733.734 273.188 738.141 275.938C742.578 278.656 746 282.578 748.406 287.703C750.844 292.797 752.062 298.688 752.062 305.375V308.422ZM737.812 305.328C737.812 298.172 736.531 292.734 733.969 289.016C731.406 285.297 727.75 283.438 723 283.438C718.281 283.438 714.641 285.281 712.078 288.969C709.516 292.625 708.219 298 708.188 305.094V308.422C708.188 315.391 709.469 320.797 712.031 324.641C714.594 328.484 718.281 330.406 723.094 330.406C727.812 330.406 731.438 328.562 733.969 324.875C736.5 321.156 737.781 315.75 737.812 308.656V305.328ZM817.781 341H803.719L776.344 296.094V341H762.281V272.75H776.344L803.766 317.75V272.75H817.781V341ZM865.453 323.094C865.453 320.438 864.516 318.406 862.641 317C860.766 315.562 857.391 314.062 852.516 312.5C847.641 310.906 843.781 309.344 840.938 307.812C833.188 303.625 829.312 297.984 829.312 290.891C829.312 287.203 830.344 283.922 832.406 281.047C834.5 278.141 837.484 275.875 841.359 274.25C845.266 272.625 849.641 271.812 854.484 271.812C859.359 271.812 863.703 272.703 867.516 274.484C871.328 276.234 874.281 278.719 876.375 281.938C878.5 285.156 879.562 288.812 879.562 292.906H865.5C865.5 289.781 864.516 287.359 862.547 285.641C860.578 283.891 857.812 283.016 854.25 283.016C850.812 283.016 848.141 283.75 846.234 285.219C844.328 286.656 843.375 288.562 843.375 290.938C843.375 293.156 844.484 295.016 846.703 296.516C848.953 298.016 852.25 299.422 856.594 300.734C864.594 303.141 870.422 306.125 874.078 309.688C877.734 313.25 879.562 317.688 879.562 323C879.562 328.906 877.328 333.547 872.859 336.922C868.391 340.266 862.375 341.938 854.812 341.938C849.562 341.938 844.781 340.984 840.469 339.078C836.156 337.141 832.859 334.5 830.578 331.156C828.328 327.812 827.203 323.938 827.203 319.531H841.312C841.312 327.062 845.812 330.828 854.812 330.828C858.156 330.828 860.766 330.156 862.641 328.812C864.516 327.438 865.453 325.531 865.453 323.094Z" fill="white"/>
</svg>
